<svg width="19" height="19" viewBox="0 0 19 19" fill="none" xmlns="http://www.w3.org/2000/svg">
<path d="M3.875 5.71619V18.3959H0.488281V5.71619H3.875ZM0.277344 2.4115C0.277344 1.91931 0.449219 1.51306 0.792969 1.19275C1.13672 0.872437 1.59766 0.71228 2.17578 0.71228C2.74609 0.71228 3.20312 0.872437 3.54688 1.19275C3.89844 1.51306 4.07422 1.91931 4.07422 2.4115C4.07422 2.90369 3.89844 3.30994 3.54688 3.63025C3.20312 3.95056 2.74609 4.11072 2.17578 4.11072C1.59766 4.11072 1.13672 3.95056 0.792969 3.63025C0.449219 3.30994 0.277344 2.90369 0.277344 2.4115ZM10.4488 8.42322V18.3959H7.07375V5.71619H10.2378L10.4488 8.42322ZM9.95656 11.6107H9.0425C9.0425 10.6732 9.16359 9.82947 9.40578 9.07947C9.64797 8.32166 9.98781 7.67712 10.4253 7.14587C10.8628 6.60681 11.3823 6.19666 11.9839 5.91541C12.5933 5.62634 13.273 5.48181 14.023 5.48181C14.6167 5.48181 15.1597 5.56775 15.6519 5.73962C16.1441 5.9115 16.5659 6.18494 16.9175 6.55994C17.2769 6.93494 17.5503 7.43103 17.7378 8.04822C17.9331 8.66541 18.0308 9.41931 18.0308 10.3099V18.3959H14.6323V10.2982C14.6323 9.73572 14.5542 9.29822 14.398 8.98572C14.2417 8.67322 14.0113 8.45447 13.7066 8.32947C13.4097 8.19666 13.0425 8.13025 12.605 8.13025C12.1519 8.13025 11.7573 8.22009 11.4214 8.39978C11.0933 8.57947 10.8198 8.82947 10.6011 9.14978C10.3902 9.46228 10.23 9.82947 10.1206 10.2513C10.0113 10.6732 9.95656 11.1263 9.95656 11.6107Z" fill="black"/>
</svg>
